<?xml version="1.0" standalone="no"?>
<!DOCTYPE svg PUBLIC "-//W3C//DTD SVG 20010904//EN"
 "http://www.w3.org/TR/2001/REC-SVG-20010904/DTD/svg10.dtd">
<svg version="1.0" xmlns="http://www.w3.org/2000/svg"
 width="2800.000000pt" height="2800.000000pt" viewBox="0 0 2800.000000 2800.000000"
 preserveAspectRatio="xMidYMid meet">
<metadata>
Created by potrace 1.14, written by Peter Selinger 2001-2017
</metadata>
<g transform="translate(0.000000,2800.000000) scale(0.100000,-0.100000)"
fill="#000000" stroke="none">
<path d="M11170 27200 l0 -270 -810 0 -810 0 0 -270 0 -270 -335 0 -335 0 0
-605 0 -605 -270 0 -270 0 0 -3635 0 -3635 -270 0 -270 0 0 -270 0 -270 -265
0 -265 0 0 -1415 0 -1415 265 0 265 0 0 -535 0 -535 270 0 270 0 0 -270 0
-270 270 0 270 0 0 -1685 0 -1685 335 0 335 0 0 -1415 0 -1415 -335 0 -335 0
0 -265 0 -265 -270 0 -270 0 0 -270 0 -270 -535 0 -535 0 0 -270 0 -270 -270
0 -270 0 0 -335 0 -335 -605 0 -605 0 0 -270 0 -270 -540 0 -540 0 0 -270 0
-270 -540 0 -540 0 0 -270 0 -270 -540 0 -540 0 0 -270 0 -270 -605 0 -605 0
0 -270 0 -270 -535 0 -535 0 0 -875 0 -875 14000 0 14000 0 0 875 0 875 -540
0 -540 0 0 270 0 270 -605 0 -605 0 0 270 0 270 -270 0 -270 0 0 270 0 270
-540 0 -540 0 0 270 0 270 -605 0 -605 0 0 270 0 270 -270 0 -270 0 0 335 0
335 -270 0 -270 0 0 270 0 270 -1140 0 -1140 0 0 1075 0 1075 335 0 335 0 0
875 0 875 270 0 270 0 0 1685 0 1685 270 0 270 0 0 270 0 270 265 0 265 0 0
535 0 535 270 0 270 0 0 1415 0 1415 -270 0 -270 0 0 270 0 270 -265 0 -265 0
0 3095 0 3095 -270 0 -270 0 0 270 0 270 -270 0 -270 0 0 270 0 270 -335 0
-335 0 0 270 0 270 -270 0 -270 0 0 335 0 335 -270 0 -270 0 0 270 0 270 -540
0 -540 0 0 270 0 270 -3095 0 -3095 0 0 -270z"/>
</g>
</svg>
